<svg width="114" height="27" viewBox="0 0 114 27" fill="none" xmlns="http://www.w3.org/2000/svg">
<g clip-path="url(#clip0_563_5478)">
<path d="M26.8112 25.0248H20.455L18.5214 20.4234H7.97978L6.21723 25.0244H0L9.49718 1.79385H16.302L26.8112 25.0248ZM13.0303 7.32798L9.53815 16.3778H16.7916L13.0303 7.32798ZM49.7383 1.79385H54.854V25.0248H48.9795V10.5458L42.6235 17.8336H41.7262L35.3701 10.5135V24.9926H29.4953V1.79385H34.611L42.1747 10.433L49.7383 1.79385ZM69.7364 1.79385C78.3363 1.79385 82.7912 7.07071 82.7912 13.4414C82.7912 20.1179 78.5075 25.0248 69.1083 25.0248H59.3337V1.79385H69.7364ZM65.2082 20.7696H69.043C74.9501 20.7696 76.7126 16.8199 76.7126 13.4093C76.7126 9.38722 74.534 6.0491 68.9776 6.0491H65.208L65.2082 20.7696ZM94.4343 8.76798V19.2894H105.106L97.4858 26.8106H86.8137V16.281L94.4343 8.76798ZM114 0V26.5851L106.592 19.2813V7.30383H94.4425L87.0421 0H114Z" fill="#17FFD5"/>
</g>
<defs>
<clipPath id="clip0_563_5478">
<rect width="114" height="27" fill="white"/>
</clipPath>
</defs>
</svg>
